HIERARCHY
ROOT Hips
{
	OFFSET 0.00 0.00 0.00
	CHANNELS 6 Xposition Yposition Zposition Xrotation Yrotation Zrotation
	JOINT Spine
	{
		OFFSET 0.00000 1.15266 1.72900
		CHANNELS 3 Xrotation Yrotation Zrotation
		JOINT Spine1
		{
			OFFSET 0.00000 0.40032 2.27031
			CHANNELS 3 Xrotation Yrotation Zrotation
			JOINT Spine2
			{
				OFFSET 0.00000 0.20092 2.29656
				CHANNELS 3 Xrotation Yrotation Zrotation
				JOINT Spine3
				{
					OFFSET 0.00000 0.00000 2.30533
					CHANNELS 3 Xrotation Yrotation Zrotation
					JOINT Neck
					{
						OFFSET 0.00000 -0.86449 6.05149
						CHANNELS 3 Xrotation Yrotation Zrotation
						JOINT Head
						{
							OFFSET 0.00000 -0.55043 3.12167
							CHANNELS 3 Xrotation Yrotation Zrotation
							End Site
							{
								OFFSET 0.00000 0.00000 3.73175
							}
						}
					}
					JOINT RightShoulder
					{
						OFFSET -0.78828 -1.31380 4.25672
						CHANNELS 3 Xrotation Yrotation Zrotation
						JOINT RightArm
						{
							OFFSET -3.91513 0.00000 0.00000
							CHANNELS 3 Xrotation Yrotation Zrotation
							JOINT RightForeArm
							{
								OFFSET -6.91491 0.00000 0.00000
								CHANNELS 3 Xrotation Yrotation Zrotation
								JOINT RightHand
								{
									OFFSET -6.09622 0.00000 0.00000
									CHANNELS 3 Xrotation Yrotation Zrotation
									JOINT RightHandEnd
									{
										OFFSET -1.74995 0.00000 0.00000
										CHANNELS 3 Xrotation Yrotation Zrotation
										End Site
										{
											OFFSET -1.74995 0.00000 0.00000
										}
									}
									JOINT RightHandThumb1
									{
										OFFSET -0.69998 -1.16663 -0.46665
										CHANNELS 3 Yrotation Xrotation Zrotation
										End Site
										{
											OFFSET -1.69032 -0.45292 0.00000
										}
									}
								}
							}
						}
					}
					JOINT LeftShoulder
					{
						OFFSET 0.78828 -1.31380 4.25672
						CHANNELS 3 Xrotation Yrotation Zrotation
						JOINT LeftArm
						{
							OFFSET 3.91513 0.00000 0.00000
							CHANNELS 3 Xrotation Yrotation Zrotation
							JOINT LeftForeArm
							{
								OFFSET 6.91491 0.00000 0.00000
								CHANNELS 3 Xrotation Yrotation Zrotation
								JOINT LeftHand
								{
									OFFSET 6.09622 0.00000 0.00000
									CHANNELS 3 Xrotation Yrotation Zrotation
									JOINT LeftHandEnd
									{
										OFFSET 1.74995 0.00000 0.00000
										CHANNELS 3 Xrotation Yrotation Zrotation
										End Site
										{
											OFFSET 1.74995 0.00000 0.00000
										}
									}
									JOINT LeftHandThumb1
									{
										OFFSET 0.69998 -1.16663 -0.46665
										CHANNELS 3 Yrotation Xrotation Zrotation
										End Site
										{
											OFFSET 1.69032 -0.45292 0.00000
										}
									}
								}
							}
						}
					}
				}
			}
		}
	}
	JOINT RightUpLeg
	{
		OFFSET -2.33857 0.00000 -0.68318
		CHANNELS 3 Xrotation Yrotation Zrotation
		JOINT RightLeg
		{
			OFFSET 0.00000 0.00000 -10.74496
			CHANNELS 3 Xrotation Yrotation Zrotation
			JOINT RightFoot
			{
				OFFSET 0.00000 0.00000 -10.93085
				CHANNELS 3 Xrotation Yrotation Zrotation
				JOINT RightToeBase
				{
					OFFSET 0.00000 -4.08727 -1.48765
					CHANNELS 3 Xrotation Yrotation Zrotation
					End Site
					{
						OFFSET 0.00000 -1.89187 -0.00000
					}
				}
			}
		}
	}
	JOINT LeftUpLeg
	{
		OFFSET 2.33857 0.00000 -0.68318
		CHANNELS 3 Xrotation Yrotation Zrotation
		JOINT LeftLeg
		{
			OFFSET 0.00000 0.00000 -10.74496
			CHANNELS 3 Xrotation Yrotation Zrotation
			JOINT LeftFoot
			{
				OFFSET 0.00000 0.00000 -10.93085
				CHANNELS 3 Xrotation Yrotation Zrotation
				JOINT LeftToeBase
				{
					OFFSET 0.00000 -4.08727 -1.48765
					CHANNELS 3 Xrotation Yrotation Zrotation
					End Site
					{
						OFFSET 0.00000 -1.89187 -0.00000
					}
				}
			}
		}
	}
}
MOTION
Frames: 19
Frame Time: 0.008342
 1.7236 -13.6068 25.0010 -3.7817 0.3436 160.5587 3.3565 -1.4592 0.1474 4.6518 -4.8171 -0.1781 -3.6651 3.6045 10.3317 -2.0537 1.6207 0.3219 -1.4941 6.9894 -13.1285 5.9330 -2.3386 -17.8016 -13.0116 2.7168 -6.2495 5.2768 2.8707 2.0122 0.0000 0.0000 11.2450 -3.1928 0.8420 -2.9478 -0.0000 -0.0000 -0.0000 -0.0000 -0.0000 0.0000 -14.2523 5.2366 7.2912 -5.2012 2.5155 -6.8603 -0.0000 0.0000 2.2414 3.9985 5.7646 6.0926 0.0000 0.0000 0.0000 -0.0000 0.0000 0.0000 -5.1221 0.4626 -5.5531 3.3286 0.0000 0.0000 -1.5388 -1.4650 6.7244 4.8701 0.0000 0.0000 -2.8051 -3.8767 11.8076 1.3196 0.0000 0.0000 -5.1716 2.4788 5.8652 0.8088 0.0000 0.0000
 1.7239 -13.6067 25.0010 -3.7868 0.3413 160.5633 3.3633 -1.4504 0.1453 4.6515 -4.8109 -0.1786 -3.6593 3.5880 10.3114 -2.0560 1.6126 0.3210 -1.4939 6.9960 -13.1317 5.9305 -2.3359 -17.8009 -13.0016 2.7028 -6.2450 5.2769 2.8645 2.0145 0.0000 0.0000 11.2617 -3.2082 0.8769 -2.9298 0.0000 0.0000 0.0000 -0.0000 -0.0000 -0.0000 -14.2461 5.2171 7.2893 -5.2171 2.5372 -6.8622 -0.0000 0.0000 2.2402 3.9916 5.7595 6.1069 0.0000 -0.0000 -0.0000 -0.0000 -0.0000 0.0000 -5.1260 0.4586 -5.5614 3.3280 0.0000 0.0000 -1.5420 -1.4888 6.7260 4.8824 0.0000 0.0000 -2.8088 -3.8807 11.7945 1.3190 0.0000 0.0000 -5.1715 2.4790 5.8740 0.7964 0.0000 0.0000
 1.7241 -13.6071 25.0010 -3.8069 0.3418 160.5689 3.3618 -1.4477 0.1427 4.6446 -4.7753 -0.1768 -3.6462 3.5396 10.2818 -2.0583 1.6065 0.3204 -1.4949 7.0105 -13.1367 5.9274 -2.3348 -17.7991 -12.9950 2.6940 -6.2383 5.2766 2.8488 2.0164 0.0000 0.0000 11.2824 -3.2248 0.9300 -2.9107 -0.0000 -0.0000 -0.0000 0.0000 -0.0000 -0.0000 -14.2411 5.2059 7.2839 -5.2349 2.5511 -6.8615 -0.0000 0.0000 2.2359 3.9831 5.7560 6.1268 0.0000 0.0000 0.0000 -0.0000 -0.0000 0.0000 -5.1489 0.4524 -5.5682 3.3314 0.0000 0.0000 -1.5456 -1.5168 6.7246 4.8964 0.0000 0.0000 -2.8329 -3.8879 11.7851 1.3256 0.0000 0.0000 -5.1726 2.4789 5.8775 0.7787 0.0000 0.0000
 1.7244 -13.6068 25.0010 -3.8150 0.3387 160.5739 3.3756 -1.4359 0.1406 4.6422 -4.7680 -0.1781 -3.6401 3.5197 10.2528 -2.0610 1.5930 0.3221 -1.4932 7.0217 -13.1436 5.9263 -2.3332 -17.7977 -12.9821 2.6805 -6.2336 5.2703 2.8301 2.0198 0.0000 0.0000 11.3049 -3.2447 0.9937 -2.8930 -0.0000 0.0000 -0.0000 0.0000 -0.0000 0.0000 -14.2330 5.1812 7.2726 -5.2524 2.5751 -6.8595 -0.0000 0.0000 2.2307 3.9754 5.7441 6.1504 0.0000 -0.0000 0.0000 -0.0000 -0.0000 0.0000 -5.1554 0.4468 -5.5748 3.3312 0.0000 0.0000 -1.5502 -1.5475 6.7234 4.9115 0.0000 0.0000 -2.8375 -3.8934 11.7708 1.3237 0.0000 0.0000 -5.1704 2.4780 5.8868 0.7565 0.0000 0.0000
 1.7246 -13.6070 25.0009 -3.8416 0.3400 160.5794 3.3757 -1.4297 0.1370 4.6345 -4.7308 -0.1772 -3.6263 3.4642 10.2170 -2.0639 1.5850 0.3244 -1.4931 7.0392 -13.1511 5.9260 -2.3331 -17.7953 -12.9686 2.6652 -6.2293 5.2599 2.8128 2.0263 0.0000 0.0000 11.3262 -3.2668 1.0661 -2.8758 0.0000 -0.0000 0.0000 -0.0000 -0.0000 -0.0000 -14.2256 5.1649 7.2613 -5.2687 2.5916 -6.8604 -0.0000 0.0000 2.2243 3.9684 5.7294 6.1748 0.0000 -0.0000 0.0000 0.0000 0.0000 0.0000 -5.1854 0.4394 -5.5813 3.3359 0.0000 0.0000 -1.5545 -1.5787 6.7214 4.9265 0.0000 0.0000 -2.8667 -3.9018 11.7577 1.3295 0.0000 0.0000 -5.1694 2.4755 5.8938 0.7296 0.0000 0.0000
 1.7247 -13.6073 25.0009 -3.8765 0.3450 160.5840 3.3714 -1.4192 0.1347 4.6262 -4.7084 -0.1770 -3.6152 3.4256 10.1810 -2.0660 1.5737 0.3245 -1.4928 7.0536 -13.1571 5.9270 -2.3332 -17.7924 -12.9585 2.6509 -6.2201 5.2473 2.7861 2.0294 0.0000 0.0000 11.3483 -3.2864 1.1500 -2.8618 0.0000 -0.0000 -0.0000 -0.0000 -0.0000 0.0000 -14.2202 5.1402 7.2455 -5.2794 2.6119 -6.8559 -0.0000 0.0000 2.2125 3.9623 5.7050 6.1992 -0.0000 -0.0000 -0.0000 -0.0000 0.0000 -0.0000 -5.2268 0.4332 -5.5846 3.3439 0.0000 0.0000 -1.5597 -1.6079 6.7175 4.9406 0.0000 0.0000 -2.9051 -3.9089 11.7453 1.3350 0.0000 0.0000 -5.1662 2.4713 5.9008 0.6994 0.0000 0.0000
 1.7251 -13.6064 25.0010 -3.8922 0.3413 160.5873 3.3889 -1.4080 0.1311 4.6185 -4.6930 -0.1772 -3.6061 3.3935 10.1459 -2.0681 1.5602 0.3268 -1.4895 7.0675 -13.1635 5.9319 -2.3348 -17.7889 -12.9423 2.6373 -6.2125 5.2287 2.7580 2.0355 0.0000 0.0000 11.3660 -3.3056 1.2337 -2.8507 -0.0000 -0.0000 0.0000 -0.0000 -0.0000 0.0000 -14.2087 5.1098 7.2273 -5.2876 2.6358 -6.8544 -0.0000 0.0000 2.2005 3.9569 5.6754 6.2197 0.0000 0.0000 0.0000 -0.0000 0.0000 -0.0000 -5.2379 0.4246 -5.5867 3.3407 0.0000 0.0000 -1.5615 -1.6348 6.7138 4.9524 0.0000 0.0000 -2.9136 -3.9170 11.7293 1.3309 0.0000 0.0000 -5.1614 2.4664 5.9130 0.6665 0.0000 0.0000
 1.7249 -13.6067 25.0009 -3.9406 0.3507 160.5894 3.3765 -1.3992 0.1282 4.6070 -4.6630 -0.1767 -3.5939 3.3456 10.1104 -2.0699 1.5511 0.3264 -1.4887 7.0829 -13.1672 5.9368 -2.3380 -17.7847 -12.9286 2.6196 -6.2045 5.2060 2.7357 2.0451 0.0000 0.0000 11.3790 -3.3217 1.3154 -2.8432 -0.0000 0.0000 -0.0000 0.0000 -0.0000 -0.0000 -14.2005 5.0875 7.2095 -5.2899 2.6497 -6.8522 -0.0000 0.0000 2.1834 3.9518 5.6414 6.2342 0.0000 -0.0000 0.0000 -0.0000 0.0000 0.0000 -5.2949 0.4184 -5.5845 3.3503 0.0000 0.0000 -1.5648 -1.6560 6.7078 4.9619 0.0000 0.0000 -2.9665 -3.9241 11.7182 1.3375 0.0000 0.0000 -5.1570 2.4582 5.9211 0.6325 0.0000 0.0000
 1.7249 -13.6060 25.0010 -3.9756 0.3553 160.5896 3.3791 -1.3917 0.1256 4.5953 -4.6340 -0.1757 -3.5837 3.2987 10.0764 -2.0711 1.5438 0.3270 -1.4855 7.0975 -13.1713 5.9454 -2.3431 -17.7791 -12.9156 2.6120 -6.1957 5.1819 2.7032 2.0548 0.0000 0.0000 11.3883 -3.3321 1.3944 -2.8410 0.0000 0.0000 0.0000 0.0000 -0.0000 -0.0000 -14.1876 5.0616 7.1890 -5.2885 2.6656 -6.8500 -0.0000 0.0000 2.1650 3.9456 5.6029 6.2403 0.0000 0.0000 0.0000 0.0000 0.0000 0.0000 -5.3310 0.4121 -5.5798 3.3523 0.0000 0.0000 -1.5657 -1.6721 6.7019 4.9684 0.0000 0.0000 -2.9981 -3.9300 11.7075 1.3363 0.0000 0.0000 -5.1510 2.4485 5.9311 0.5985 0.0000 0.0000
 1.7249 -13.6047 25.0010 -4.0025 0.3573 160.5879 3.3899 -1.3844 0.1221 4.5858 -4.6137 -0.1752 -3.5775 3.2629 10.0450 -2.0728 1.5368 0.3304 -1.4802 7.1081 -13.1740 5.9560 -2.3492 -17.7733 -12.9031 2.6101 -6.1843 5.1563 2.6654 2.0611 0.0000 0.0000 11.3950 -3.3377 1.4659 -2.8417 -0.0000 0.0000 -0.0000 0.0000 -0.0000 -0.0000 -14.1695 5.0339 7.1657 -5.2842 2.6798 -6.8478 -0.0000 0.0000 2.1452 3.9383 5.5635 6.2392 0.0000 0.0000 -0.0000 0.0000 0.0000 0.0000 -5.3543 0.4059 -5.5728 3.3493 0.0000 0.0000 -1.5647 -1.6828 6.6961 4.9718 0.0000 0.0000 -3.0167 -3.9348 11.6958 1.3302 0.0000 0.0000 -5.1445 2.4371 5.9442 0.5656 0.0000 0.0000
 1.7245 -13.6037 25.0010 -4.0432 0.3663 160.5839 3.3900 -1.3804 0.1188 4.5709 -4.5881 -0.1730 -3.5694 3.2253 10.0179 -2.0746 1.5341 0.3274 -1.4767 7.1149 -13.1709 5.9669 -2.3563 -17.7671 -12.8920 2.6053 -6.1707 5.1304 2.6343 2.0695 0.0000 0.0000 11.3960 -3.3416 1.5241 -2.8445 0.0000 0.0000 0.0000 -0.0000 -0.0000 -0.0000 -14.1533 5.0031 7.1470 -5.2747 2.6952 -6.8466 -0.0000 0.0000 2.1234 3.9304 5.5205 6.2313 -0.0000 -0.0000 0.0000 0.0000 -0.0000 0.0000 -5.3976 0.4025 -5.5624 3.3522 0.0000 0.0000 -1.5643 -1.6876 6.6902 4.9730 0.0000 0.0000 -3.0544 -3.9373 11.6857 1.3289 0.0000 0.0000 -5.1391 2.4224 5.9581 0.5356 0.0000 0.0000
 1.7241 -13.6024 25.0010 -4.0808 0.3759 160.5776 3.3915 -1.3739 0.1169 4.5623 -4.5701 -0.1724 -3.5687 3.1953 9.9939 -2.0768 1.5299 0.3266 -1.4723 7.1219 -13.1672 5.9795 -2.3652 -17.7598 -12.8797 2.6074 -6.1589 5.1041 2.6030 2.0819 0.0000 0.0000 11.3919 -3.3442 1.5699 -2.8490 -0.0000 -0.0000 0.0000 -0.0000 -0.0000 0.0000 -14.1339 4.9742 7.1270 -5.2644 2.7086 -6.8432 -0.0000 0.0000 2.1002 3.9217 5.4820 6.2192 0.0000 0.0000 0.0000 -0.0000 -0.0000 0.0000 -5.4371 0.4010 -5.5496 3.3547 0.0000 0.0000 -1.5641 -1.6880 6.6846 4.9722 0.0000 0.0000 -3.0874 -3.9374 11.6786 1.3258 0.0000 0.0000 -5.1342 2.4059 5.9714 0.5090 0.0000 0.0000
 1.7235 -13.6007 25.0009 -4.1141 0.3854 160.5682 3.3973 -1.3668 0.1153 4.5585 -4.5512 -0.1737 -3.5760 3.1636 9.9760 -2.0783 1.5239 0.3288 -1.4669 7.1334 -13.1646 5.9928 -2.3777 -17.7513 -12.8700 2.6243 -6.1481 5.0818 2.5660 2.0943 0.0000 0.0000 11.3860 -3.3450 1.6066 -2.8538 0.0000 0.0000 -0.0000 0.0000 -0.0000 -0.0000 -14.1116 4.9501 7.1044 -5.2538 2.7209 -6.8374 -0.0000 0.0000 2.0776 3.9107 5.4468 6.2036 0.0000 -0.0000 -0.0000 0.0000 -0.0000 0.0000 -5.4713 0.4010 -5.5366 3.3562 0.0000 0.0000 -1.5638 -1.6853 6.6822 4.9698 0.0000 0.0000 -3.1141 -3.9356 11.6749 1.3209 0.0000 0.0000 -5.1302 2.3880 5.9845 0.4855 0.0000 0.0000
 1.7227 -13.5988 25.0008 -4.1448 0.3947 160.5563 3.4079 -1.3658 0.1135 4.5520 -4.5309 -0.1700 -3.5816 3.1381 9.9573 -2.0826 1.5237 0.3271 -1.4617 7.1340 -13.1560 6.0040 -2.3884 -17.7445 -12.8556 2.6304 -6.1347 5.0584 2.5427 2.1047 0.0000 0.0000 11.3797 -3.3525 1.6271 -2.8596 -0.0000 0.0000 -0.0000 0.0000 -0.0000 0.0000 -14.0899 4.9140 7.0854 -5.2429 2.7411 -6.8318 -0.0000 0.0000 2.0577 3.9016 5.4134 6.1886 0.0000 -0.0000 0.0000 0.0000 -0.0000 -0.0000 -5.5026 0.4020 -5.5232 3.3578 0.0000 0.0000 -1.5634 -1.6812 6.6818 4.9668 0.0000 0.0000 -3.1386 -3.9328 11.6746 1.3181 0.0000 0.0000 -5.1290 2.3692 5.9963 0.4663 0.0000 0.0000
 1.7218 -13.5967 25.0007 -4.1728 0.4046 160.5434 3.4223 -1.3593 0.1110 4.5458 -4.5164 -0.1721 -3.5891 3.1131 9.9486 -2.0876 1.5209 0.3265 -1.4576 7.1392 -13.1486 6.0150 -2.4014 -17.7373 -12.8434 2.6514 -6.1232 5.0386 2.5132 2.1172 0.0000 0.0000 11.3729 -3.3628 1.6443 -2.8631 0.0000 -0.0000 0.0000 0.0000 -0.0000 -0.0000 -14.0659 4.8843 7.0679 -5.2361 2.7592 -6.8285 -0.0000 0.0000 2.0419 3.8936 5.3893 6.1777 0.0000 -0.0000 0.0000 -0.0000 0.0000 0.0000 -5.5312 0.4051 -5.5138 3.3599 0.0000 0.0000 -1.5641 -1.6766 6.6865 4.9636 0.0000 0.0000 -3.1613 -3.9282 11.6683 1.3177 0.0000 0.0000 -5.1306 2.3491 6.0151 0.4516 0.0000 0.0000
 1.7209 -13.5943 25.0006 -4.1948 0.4135 160.5272 3.4424 -1.3560 0.1088 4.5420 -4.4955 -0.1701 -3.5987 3.0858 9.9381 -2.0930 1.5187 0.3265 -1.4533 7.1424 -13.1406 6.0230 -2.4153 -17.7304 -12.8293 2.6743 -6.1104 5.0193 2.4875 2.1266 0.0000 0.0000 11.3695 -3.3798 1.6571 -2.8651 0.0000 0.0000 -0.0000 0.0000 -0.0000 0.0000 -14.0428 4.8496 7.0509 -5.2313 2.7843 -6.8235 -0.0000 0.0000 2.0301 3.8905 5.3690 6.1722 -0.0000 -0.0000 -0.0000 0.0000 -0.0000 -0.0000 -5.5530 0.4093 -5.5037 3.3619 0.0000 0.0000 -1.5657 -1.6726 6.6931 4.9608 0.0000 0.0000 -3.1757 -3.9222 11.6664 1.3154 0.0000 0.0000 -5.1334 2.3299 6.0325 0.4404 0.0000 0.0000
 1.7198 -13.5920 25.0005 -4.2235 0.4262 160.5083 3.4565 -1.3521 0.1067 4.5378 -4.4719 -0.1683 -3.6076 3.0561 9.9303 -2.0987 1.5162 0.3278 -1.4510 7.1451 -13.1331 6.0280 -2.4292 -17.7247 -12.8149 2.6988 -6.0997 5.0003 2.4662 2.1361 0.0000 0.0000 11.3691 -3.4048 1.6698 -2.8651 -0.0000 -0.0000 -0.0000 -0.0000 -0.0000 -0.0000 -14.0216 4.8174 7.0345 -5.2286 2.8087 -6.8186 -0.0000 0.0000 2.0226 3.8921 5.3557 6.1739 -0.0000 -0.0000 -0.0000 -0.0000 0.0000 0.0000 -5.5857 0.4153 -5.4960 3.3685 0.0000 0.0000 -1.5687 -1.6698 6.7044 4.9584 0.0000 0.0000 -3.2006 -3.9152 11.6678 1.3179 0.0000 0.0000 -5.1390 2.3114 6.0490 0.4326 0.0000 0.0000
 1.7186 -13.5896 25.0003 -4.2509 0.4390 160.4873 3.4713 -1.3470 0.1049 4.5331 -4.4507 -0.1664 -3.6148 3.0297 9.9238 -2.1040 1.5123 0.3298 -1.4493 7.1451 -13.1266 6.0297 -2.4425 -17.7202 -12.7990 2.7240 -6.0900 4.9801 2.4473 2.1443 0.0000 0.0000 11.3731 -3.4376 1.6887 -2.8632 0.0000 -0.0000 0.0000 0.0000 -0.0000 -0.0000 -14.0026 4.7834 7.0178 -5.2275 2.8359 -6.8123 -0.0000 0.0000 2.0192 3.9021 5.3471 6.1824 0.0000 0.0000 0.0000 0.0000 -0.0000 0.0000 -5.6170 0.4219 -5.4903 3.3751 0.0000 0.0000 -1.5721 -1.6685 6.7193 4.9562 0.0000 0.0000 -3.2234 -3.9079 11.6705 1.3203 0.0000 0.0000 -5.1460 2.2949 6.0663 0.4276 0.0000 0.0000
 1.7176 -13.5868 25.0002 -4.2778 0.4519 160.4650 3.4853 -1.3410 0.1030 4.5267 -4.4284 -0.1647 -3.6184 3.0030 9.9172 -2.1083 1.5072 0.3332 -1.4484 7.1420 -13.1211 6.0274 -2.4546 -17.7177 -12.7816 2.7491 -6.0817 4.9584 2.4302 2.1524 0.0000 0.0000 11.3810 -3.4780 1.7164 -2.8576 0.0000 0.0000 -0.0000 0.0000 -0.0000 0.0000 -13.9857 4.7490 7.0000 -5.2262 2.8635 -6.8035 -0.0000 0.0000 2.0180 3.9204 5.3434 6.1976 0.0000 0.0000 0.0000 0.0000 0.0000 0.0000 -5.6470 0.4288 -5.4874 3.3810 0.0000 0.0000 -1.5756 -1.6685 6.7377 4.9542 0.0000 0.0000 -3.2439 -3.9001 11.6743 1.3208 0.0000 0.0000 -5.1534 2.2813 6.0839 0.4248 0.0000 0.0000
